<svg id="header-logo-desktop" viewBox="0 0 90 53"> <g> <path fill="#0669DE" d="M23.4.2c1.1-.4 2.4.1 3 1.1.5.8.5 1.7.6 2.6v22.8c0 .8-.1 1.6-.4 2.3-.6 1.5-2.8 2.1-4 1-1.1-.6-1.3-2-1.3-3V3c0-1.2.8-2.6 2.1-2.8zM3.8 11a7.8 7.8 0 019-1 8.5 8.5 0 011.7 1.5c.2-.6.5-1.3 1-1.7 1-.8 2.8-.9 3.8.2.7.8.8 2 .8 3v15.2c0 2-.3 4.1-1.2 6a8.9 8.9 0 01-3.3 3.2 13.7 13.7 0 01-8.4 1.3C5.4 38.4 3.5 38 2 37c-.8-.5-1.6-1.3-1.6-2.3 0-1 .6-1.8 1.4-2.3 1-.5 2.2 0 3.2.4 1.8.8 3.7 1.4 5.7 1 1.5-.1 3-1.1 3.5-2.5.4-1 .3-2.1.3-3.2-.7.8-1.5 1.6-2.5 2-3 1.3-6.6.8-8.9-1.5A10.2 10.2 0 01.3 23c-.4-2-.5-4.1 0-6.1a11 11 0 013.5-6zm6 3.2c-1 0-2.1.6-2.8 1.4A7.2 7.2 0 005.7 20c0 1.5.3 3 1.2 4 1.1 1.7 3.4 2 5 1.2a4.8 4.8 0 002.2-3c.5-1.4.4-3 0-4.5-.4-1-.8-2.2-1.8-2.8-.7-.6-1.6-.8-2.5-.7zM37.7 9c2.3-.1 4.7.7 6.4 2.2 3 2.5 4.4 6.7 3.8 10.6-.5 3-2.1 6-4.8 7.6a10 10 0 01-9.7.4c-1.5-.8-2.9-2-3.8-3.5-1.3-2-1.8-4.6-1.8-7 .3-3.6 2.1-7.1 5.2-9 1.4-.9 3-1.3 4.7-1.3zm0 5.2c-1 0-2 .4-2.7 1.2-1.7 2.1-2 5.2-.8 7.7a4.1 4.1 0 003.7 2.5c1.6.1 3.1-1 3.8-2.5.9-1.7.8-3.8.3-5.6a5 5 0 00-1.8-2.6c-.7-.6-1.6-.8-2.5-.7zM49.6 1c1-1.3 3.3-1.4 4.3 0 .6.7.6 1.8.6 2.7v7c2.8-2.2 7-2.6 10-.5 2 1.3 3.3 3.6 4 5.9.4 1.8.7 3.8.4 5.7-.3 2.2-1.3 4.4-2.8 6a8.6 8.6 0 01-5.4 2.8c-2.3.4-4.8-.5-6.1-2.4-.3.6-.6 1.3-1.1 1.8-1.3.8-3.4.6-4.2-.9-.4-.7-.4-1.6-.4-2.4V3.5c0-.9.1-1.7.7-2.4zm9.2 13c-1 .1-2.1.5-2.8 1.3a6.5 6.5 0 00-1.4 4.4c0 1.8.5 3.7 1.9 5 1.5 1.3 4 1 5.4-.5 2-2.5 2-6.6-.3-9a3.7 3.7 0 00-2.8-1.1zM79.6 9c2.3-.1 4.6.7 6.4 2.2 3 2.5 4.4 6.7 3.8 10.6-.5 3-2.2 6-4.9 7.6a10 10 0 01-9.6.4 9.4 9.4 0 01-3.8-3.5c-1.4-2-1.9-4.6-1.8-7 .2-3.6 2.1-7.1 5.2-9 1.4-.9 3-1.3 4.7-1.3zm0 5.2c-1 0-2 .4-2.7 1.2-1.8 2.1-2 5.2-.9 7.7a4.1 4.1 0 003.7 2.5c1.7.1 3.2-1 3.8-2.5 1-1.7 1-3.8.4-5.6a5 5 0 00-1.8-2.6c-.7-.6-1.6-.8-2.5-.7zM26.6 33c1.8-.3 3.5.1 5 .7a4 4 0 011.7 1.4c.6 1.2 0 3-1.3 3.3-1.1.2-2-.6-3-.8a4 4 0 00-3.9.9c-1.5 1.6-1.7 4.1-1 6.2.5 1.4 1.8 2.8 3.4 2.7 1.2.2 2.3-.5 3.4-.8 1.3-.5 2.7.7 2.6 2 .1 1-.7 2-1.6 2.3a9.3 9.3 0 01-7.4.6 9 9 0 01-5.6-6.8c-.6-2.6 0-5.5 1.4-7.8a8.5 8.5 0 016.4-4zm32.4.3c1.8-.7 4-.4 5.6.7l1.5 1.4a8.2 8.2 0 014.4-2.4c2-.3 4.2.3 5.7 1.6a6.6 6.6 0 011.8 5v9.2c0 .9-.1 2-1 2.5-1 .8-2.5.7-3.3-.4-.6-.8-.6-1.9-.7-2.9V40c0-1-.6-2.1-1.5-2.6-1-.4-2.3-.4-3 .4-1 .7-1.2 1.8-1.2 2.8v8.7c0 1.3-1 2.7-2.4 2.6-.7.1-1.4-.3-1.9-.8-.5-.7-.6-1.6-.6-2.5V40a3.4 3.4 0 00-1.1-2.2c-1.2-1-3.2-.8-4 .4-.6.8-.7 1.7-.7 2.6V49a3 3 0 01-.6 2 2.4 2.4 0 01-3.6.2c-.7-.8-.8-1.9-.8-2.9V37.5c0-1 0-2 .3-2.9.6-1.5 2.9-1.9 4-.7l.5 1.1c.8-.7 1.6-1.3 2.6-1.6z"></path> <path fill="#0669DE" d="M41.2 33c2.5-.3 5.2.8 7 2.6a10.3 10.3 0 010 14 8.8 8.8 0 01-11.1 1 10 10 0 01-3.8-9.6c.5-2.9 2.2-5.7 4.9-7 .9-.5 2-.8 3-1zm.3 4.6c-2 .3-3.2 2.5-3.3 4.4-.2 2 .5 4.3 2.3 5.3 1.6.7 3.7.2 4.5-1.3 1.3-2 1.2-4.8 0-6.8a3.4 3.4 0 00-3.5-1.6zm-26 9.3c1.6-.5 3.2.8 3.2 2.4.2 1.5-1.1 2.9-2.6 2.8-1.3.1-2.4-1-2.6-2.2-.3-1.4.7-2.8 2-3z"></path> </g> </svg>